solid OpenSCAD_Model
  facet normal 0 -1 0
    outer loop
      vertex -4.33333333581686 -10 14.5
      vertex -13 -10 10
      vertex -4.33333333581686 -10 10
    endloop
  endfacet
  facet normal -0.4608152707510675 0 0.8874960767477343
    outer loop
      vertex -13 -10 10
      vertex -4.33333333581686 -10 14.5
      vertex -13 10 10
    endloop
  endfacet
  facet normal 1 0 0
    outer loop
      vertex -4.33333333581686 -10 14.5
      vertex -4.33333333581686 -10 10
      vertex -4.33333333581686 10 14.5
    endloop
  endfacet
  facet normal -0.4608152707510675 0 0.8874960767477343
    outer loop
      vertex -4.33333333581686 -10 14.5
      vertex -4.33333333581686 10 14.5
      vertex -13 10 10
    endloop
  endfacet
  facet normal 0 1 0
    outer loop
      vertex -13 10 10
      vertex -4.33333333581686 10 14.5
      vertex -4.33333333581686 10 10
    endloop
  endfacet
  facet normal 1 0 0
    outer loop
      vertex -4.33333333581686 10 14.5
      vertex -4.33333333581686 -10 10
      vertex -4.33333333581686 10 10
    endloop
  endfacet
  facet normal -0.46081527075106754 0 0.8874960767477342
    outer loop
      vertex 4.333333330849804 -10 14.5
      vertex -4.333333333333334 10 10
      vertex -4.333333333333334 -10 10
    endloop
  endfacet
  facet normal 0 -1 0
    outer loop
      vertex 4.333333330849804 -10 14.5
      vertex -4.333333333333334 -10 10
      vertex 4.333333330849804 -10 10
    endloop
  endfacet
  facet normal 1 0 0
    outer loop
      vertex 4.333333330849804 -10 14.5
      vertex 4.333333330849804 -10 10
      vertex 4.333333330849804 10 14.5
    endloop
  endfacet
  facet normal -0.46081527075106754 0 0.8874960767477342
    outer loop
      vertex 4.333333330849804 -10 14.5
      vertex 4.333333330849804 10 14.5
      vertex -4.333333333333334 10 10
    endloop
  endfacet
  facet normal 1 0 0
    outer loop
      vertex 4.333333330849804 10 14.5
      vertex 4.333333330849804 -10 10
      vertex 4.333333330849804 10 10
    endloop
  endfacet
  facet normal 0 1 0
    outer loop
      vertex 4.333333330849804 10 14.5
      vertex 4.333333330849804 10 10
      vertex -4.333333333333334 10 10
    endloop
  endfacet
  facet normal -0.4608152707510675 -4.021166970901377e-17 0.8874960767477345
    outer loop
      vertex 12.999999997516472 -10 14.5
      vertex 8.55 -0.9526279441628827 12.189423077550481
      vertex 4.333333333333332 -10 10
    endloop
  endfacet
  facet normal 0 -1 0
    outer loop
      vertex 12.999999997516472 -10 14.5
      vertex 4.333333333333332 -10 10
      vertex 12.999999997516472 -10 10
    endloop
  endfacet
  facet normal -0.46081527075106415 -1.852652078354273e-15 0.8874960767477361
    outer loop
      vertex 8.185185184081394 -1.0756199079995028 12
      vertex 4.333333333333332 -10 10
      vertex 8.284700949612773 -1.0625184089179758 12.051671647502253
    endloop
  endfacet
  facet normal -0.46081527075107076 1.8313641942829245e-15 0.8874960767477326
    outer loop
      vertex 8.284700949612773 -1.0625184089179758 12.051671647502253
      vertex 4.333333333333332 -10 10
      vertex 8.55 -0.9526279441628827 12.189423077550481
    endloop
  endfacet
  facet normal -0.46081527075106754 0 0.8874960767477343
    outer loop
      vertex 8.185185184081394 -1.0756199079995028 12
      vertex 8.185185184081394 1.0756199079995046 12
      vertex 4.333333333333332 -10 10
    endloop
  endfacet
  facet normal -0.460815270751065 1.1105872805858545e-15 0.8874960767477356
    outer loop
      vertex 12.999999997516472 -10 14.5
      vertex 8.7778174593052 -0.7778174593052025 12.307712912223616
      vertex 8.55 -0.9526279441628827 12.189423077550481
    endloop
  endfacet
  facet normal -0.46081527075106715 0 0.8874960767477346
    outer loop
      vertex 12.999999997516472 -10 14.5
      vertex 8.95262794416288 -0.5500000000000007 12.398479894771883
      vertex 8.7778174593052 -0.7778174593052025 12.307712912223616
    endloop
  endfacet
  facet normal -0.4608152707510721 -2.239117777455623e-15 0.887496076747732
    outer loop
      vertex 12.999999997516472 -10 14.5
      vertex 9.062518408917974 -0.28470094961277326 12.45553840533415
      vertex 8.95262794416288 -0.5500000000000007 12.398479894771883
    endloop
  endfacet
  facet normal -0.46081527075106693 0 0.8874960767477346
    outer loop
      vertex 12.999999997516472 -10 14.5
      vertex 9.100000000000001 0 12.47500000070924
      vertex 9.062518408917974 -0.28470094961277326 12.45553840533415
    endloop
  endfacet
  facet normal -0.46081527075106626 0 0.887496076747735
    outer loop
      vertex 12.999999997516472 -10 14.5
      vertex 9.062518408917974 0.28470094961277326 12.45553840533415
      vertex 9.100000000000001 0 12.47500000070924
    endloop
  endfacet
  facet normal 1 0 0
    outer loop
      vertex 12.999999997516472 -10 14.5
      vertex 12.999999997516472 -10 10
      vertex 12.999999997516472 10 14.5
    endloop
  endfacet
  facet normal -0.46081527075106754 0 0.8874960767477343
    outer loop
      vertex 8.185185184081394 1.0756199079995046 12
      vertex 4.333333333333332 10 10
      vertex 4.333333333333332 -10 10
    endloop
  endfacet
  facet normal -0.4608152707510719 2.332414351516275e-15 0.887496076747732
    outer loop
      vertex 9.062518408917974 0.28470094961277326 12.45553840533415
      vertex 12.999999997516472 10 14.5
      vertex 8.95262794416288 0.5500000000000007 12.398479894771883
    endloop
  endfacet
  facet normal -0.46081527075106454 -2.019949174636194e-15 0.8874960767477358
    outer loop
      vertex 8.284700949612773 1.0625184089179758 12.051671647502253
      vertex 12.999999997516472 10 14.5
      vertex 8.185185184081394 1.0756199079995046 12
    endloop
  endfacet
  facet normal -0.46081527075106965 1.4323117870211913e-15 0.8874960767477331
    outer loop
      vertex 8.284700949612773 1.0625184089179758 12.051671647502253
      vertex 8.55 0.9526279441628827 12.189423077550481
      vertex 12.999999997516472 10 14.5
    endloop
  endfacet
  facet normal -0.4608152707510657 -1.0758814280675481e-15 0.8874960767477353
    outer loop
      vertex 8.55 0.9526279441628827 12.189423077550481
      vertex 8.7778174593052 0.7778174593052025 12.307712912223616
      vertex 12.999999997516472 10 14.5
    endloop
  endfacet
  facet normal -0.46081527075106715 -2.296761076319082e-16 0.8874960767477346
    outer loop
      vertex 8.7778174593052 0.7778174593052025 12.307712912223616
      vertex 8.95262794416288 0.5500000000000007 12.398479894771883
      vertex 12.999999997516472 10 14.5
    endloop
  endfacet
  facet normal 1 0 0
    outer loop
      vertex 12.999999997516472 10 14.5
      vertex 12.999999997516472 -10 10
      vertex 12.999999997516472 10 10
    endloop
  endfacet
  facet normal -0.4608152707510673 0 0.8874960767477345
    outer loop
      vertex 12.999999997516472 -10 14.5
      vertex 12.999999997516472 10 14.5
      vertex 9.062518408917974 0.28470094961277326 12.45553840533415
    endloop
  endfacet
  facet normal -0.4608152707510676 0 0.8874960767477343
    outer loop
      vertex 8.185185184081394 1.0756199079995046 12
      vertex 12.999999997516472 10 14.5
      vertex 4.333333333333332 10 10
    endloop
  endfacet
  facet normal 0 1 0
    outer loop
      vertex 12.999999997516472 10 14.5
      vertex 12.999999997516472 10 10
      vertex 4.333333333333332 10 10
    endloop
  endfacet
  facet normal 0 -1 0
    outer loop
      vertex -13 -10 0
      vertex -3 -10 0
      vertex -13 -10 10
    endloop
  endfacet
  facet normal -1 0 0
    outer loop
      vertex -13 -10 0
      vertex -13 -10 10
      vertex -13 -7 6
    endloop
  endfacet
  facet normal -1 0 0
    outer loop
      vertex -13 -7 6
      vertex -13 -10 10
      vertex -13 -7 8
    endloop
  endfacet
  facet normal -1 0 0
    outer loop
      vertex -13 -10 0
      vertex -13 -7 6
      vertex -13 10 0
    endloop
  endfacet
  facet normal -1 0 0
    outer loop
      vertex -13 -7 8
      vertex -13 -10 10
      vertex -13 7 8
    endloop
  endfacet
  facet normal 0 -1 0
    outer loop
      vertex -3 -10 7
      vertex -13 -10 10
      vertex -3 -10 0
    endloop
  endfacet
  facet normal 0 -1 0
    outer loop
      vertex -3 -10 7
      vertex 3 -10 7
      vertex -13 -10 10
    endloop
  endfacet
  facet normal 0 0 -1
    outer loop
      vertex -13 -10 0
      vertex 13 10 0
      vertex -3 -10 0
    endloop
  endfacet
  facet normal 0 -1 0
    outer loop
      vertex -4.33333333581686 -10 10
      vertex -13 -10 10
      vertex 3 -10 7
    endloop
  endfacet
  facet normal 0 -1 0
    outer loop
      vertex -4.333333333333334 -10 10
      vertex -4.33333333581686 -10 10
      vertex 3 -10 7
    endloop
  endfacet
  facet normal 0 0 1
    outer loop
      vertex -4.33333333581686 -10 10
      vertex -4.333333333333334 -10 10
      vertex -4.33333333581686 10 10
    endloop
  endfacet
  facet normal -1 0 0
    outer loop
      vertex -13 10 0
      vertex -13 -7 6
      vertex -13 7 6
    endloop
  endfacet
  facet normal -1 0 0
    outer loop
      vertex -13 10 0
      vertex -13 7 6
      vertex -13 10 10
    endloop
  endfacet
  facet normal -1 0 0
    outer loop
      vertex -13 7 6
      vertex -13 7 8
      vertex -13 10 10
    endloop
  endfacet
  facet normal 0 0 -1
    outer loop
      vertex -13 -10 0
      vertex -13 10 0
      vertex 13 10 0
    endloop
  endfacet
  facet normal 0 1 0
    outer loop
      vertex -13 10 0
      vertex -13 10 10
      vertex 13 10 0
    endloop
  endfacet
  facet normal 0 1 0
    outer loop
      vertex 13 10 0
      vertex -13 10 10
      vertex -4.33333333581686 10 10
    endloop
  endfacet
  facet normal -1 0 0
    outer loop
      vertex -13 7 8
      vertex -13 -10 10
      vertex -13 10 10
    endloop
  endfacet
  facet normal 0 0 1
    outer loop
      vertex -4.333333333333334 10 10
      vertex -4.33333333581686 10 10
      vertex -4.333333333333334 -10 10
    endloop
  endfacet
  facet normal 0 -1 0
    outer loop
      vertex 13 -10 0
      vertex 3 -10 7
      vertex 3 -10 0
    endloop
  endfacet
  facet normal 0 0 -1
    outer loop
      vertex 13 10 0
      vertex 0 -10 0
      vertex -3 -10 0
    endloop
  endfacet
  facet normal 0 0 -1
    outer loop
      vertex 13 10 0
      vertex 3 -10 0
      vertex 0 -10 0
    endloop
  endfacet
  facet normal 0 -1 0
    outer loop
      vertex 13 -10 0
      vertex 13 -10 10
      vertex 3 -10 7
    endloop
  endfacet
  facet normal 0 0 -1
    outer loop
      vertex 13 -10 0
      vertex 3 -10 0
      vertex 13 10 0
    endloop
  endfacet
  facet normal 1 0 0
    outer loop
      vertex 13 -10 0
      vertex 13 10 0
      vertex 13 -10 10
    endloop
  endfacet
  facet normal 0 -1 0
    outer loop
      vertex 3 -10 7
      vertex 4.333333330849804 -10 10
      vertex -4.333333333333334 -10 10
    endloop
  endfacet
  facet normal 0 -1 0
    outer loop
      vertex 3 -10 7
      vertex 4.333333333333332 -10 10
      vertex 4.333333330849804 -10 10
    endloop
  endfacet
  facet normal 0 0 1
    outer loop
      vertex 4.333333330849804 -10 10
      vertex 4.333333333333332 -10 10
      vertex 4.333333330849804 10 10
    endloop
  endfacet
  facet normal 0 -1 0
    outer loop
      vertex 3 -10 7
      vertex 12.999999997516472 -10 10
      vertex 4.333333333333332 -10 10
    endloop
  endfacet
  facet normal 0 -1 0
    outer loop
      vertex 13 -10 10
      vertex 12.999999997516472 -10 10
      vertex 3 -10 7
    endloop
  endfacet
  facet normal 0 0 1
    outer loop
      vertex 13 -10 10
      vertex 12.999999997516472 10 10
      vertex 12.999999997516472 -10 10
    endloop
  endfacet
  facet normal 0 1 0
    outer loop
      vertex 13 10 0
      vertex -4.33333333581686 10 10
      vertex -4.333333333333334 10 10
    endloop
  endfacet
  facet normal 0 1 0
    outer loop
      vertex 13 10 0
      vertex -4.333333333333334 10 10
      vertex 4.333333330849804 10 10
    endloop
  endfacet
  facet normal 1 0 0
    outer loop
      vertex 13 -10 10
      vertex 13 10 0
      vertex 13 10 10
    endloop
  endfacet
  facet normal 0 1 0
    outer loop
      vertex 13 10 0
      vertex 4.333333330849804 10 10
      vertex 4.333333333333332 10 10
    endloop
  endfacet
  facet normal 0 1 0
    outer loop
      vertex 13 10 0
      vertex 4.333333333333332 10 10
      vertex 12.999999997516472 10 10
    endloop
  endfacet
  facet normal 0 1 0
    outer loop
      vertex 13 10 0
      vertex 12.999999997516472 10 10
      vertex 13 10 10
    endloop
  endfacet
  facet normal 0 0 1
    outer loop
      vertex 4.333333333333332 10 10
      vertex 4.333333330849804 10 10
      vertex 4.333333333333332 -10 10
    endloop
  endfacet
  facet normal 0 0 1
    outer loop
      vertex 13 -10 10
      vertex 13 10 10
      vertex 12.999999997516472 10 10
    endloop
  endfacet
  facet normal 0 0 -1
    outer loop
      vertex -3 -10.4 0
      vertex -3 -10 0
      vertex 0 -10 0
    endloop
  endfacet
  facet normal -1 0 0
    outer loop
      vertex -3 -10.4 0
      vertex -3 -10.4 7
      vertex -3 -10 0
    endloop
  endfacet
  facet normal -1 0 0
    outer loop
      vertex -3 -10.4 7
      vertex -3 -10 7
      vertex -3 -10 0
    endloop
  endfacet
  facet normal 0 -1 0
    outer loop
      vertex -3 -10.4 0
      vertex 3 -10.4 7
      vertex -3 -10.4 7
    endloop
  endfacet
  facet normal 0 0 1
    outer loop
      vertex -3 -10.4 7
      vertex 3 -10.4 7
      vertex -3 -10 7
    endloop
  endfacet
  facet normal 0 0 -1
    outer loop
      vertex -3 -10.4 0
      vertex 0 -10 0
      vertex 3 -10.4 0
    endloop
  endfacet
  facet normal 0 0 -1
    outer loop
      vertex 3 -10.4 0
      vertex 0 -10 0
      vertex 3 -10 0
    endloop
  endfacet
  facet normal 0 -1 0
    outer loop
      vertex -3 -10.4 0
      vertex 3 -10.4 0
      vertex 3 -10.4 7
    endloop
  endfacet
  facet normal 1 0 0
    outer loop
      vertex 3 -10.4 0
      vertex 3 -10 0
      vertex 3 -10 7
    endloop
  endfacet
  facet normal 1 0 0
    outer loop
      vertex 3 -10.4 0
      vertex 3 -10 7
      vertex 3 -10.4 7
    endloop
  endfacet
  facet normal 0 0 1
    outer loop
      vertex 3 -10.4 7
      vertex 3 -10 7
      vertex -3 -10 7
    endloop
  endfacet
  facet normal 0 0 -1
    outer loop
      vertex 7.222182540694799 -0.7778174593052025 12
      vertex 7.449999999999999 0.9526279441628827 12
      vertex 7.449999999999999 -0.9526279441628827 12
    endloop
  endfacet
  facet normal 0 0 -1
    outer loop
      vertex 7.449999999999999 -0.9526279441628827 12
      vertex 7.715299050387227 1.0625184089179758 12
      vertex 7.715299050387227 -1.0625184089179758 12
    endloop
  endfacet
  facet normal 0 0 -1
    outer loop
      vertex 7.715299050387227 -1.0625184089179758 12
      vertex 8 1.0999999999999996 12
      vertex 8 -1.0999999999999996 12
    endloop
  endfacet
  facet normal 0 0 -1
    outer loop
      vertex 8 -1.0999999999999996 12
      vertex 8 1.0999999999999996 12
      vertex 8.185185184081394 -1.0756199079995028 12
    endloop
  endfacet
  facet normal 0.1305261922200496 -0.9914448613738106 -9.52612213167663e-15
    outer loop
      vertex 8 -1.0999999999999996 12
      vertex 8.185185184081394 -1.0756199079995028 12
      vertex 8.284700949612773 -1.0625184089179758 12.051671647502253
    endloop
  endfacet
  facet normal -0.7933533402912347 -0.6087614290087212 0
    outer loop
      vertex 7.222182540694799 -0.7778174593052025 12
      vertex 7.047372055837119 -0.5500000000000007 18
      vertex 7.047372055837119 -0.5500000000000007 12
    endloop
  endfacet
  facet normal -0.9238795325112862 -0.38268343236509095 0
    outer loop
      vertex 7.047372055837119 -0.5500000000000007 12
      vertex 6.937481591082026 -0.28470094961277326 18
      vertex 6.937481591082026 -0.28470094961277326 12
    endloop
  endfacet
  facet normal -0.6087614290087242 -0.7933533402912325 0
    outer loop
      vertex 7.222182540694799 -0.7778174593052025 12
      vertex 7.449999999999999 -0.9526279441628827 12
      vertex 7.449999999999999 -0.9526279441628827 18
    endloop
  endfacet
  facet normal -0.38268343236509095 -0.9238795325112862 0
    outer loop
      vertex 7.449999999999999 -0.9526279441628827 12
      vertex 7.715299050387227 -1.0625184089179758 12
      vertex 7.715299050387227 -1.0625184089179758 18
    endloop
  endfacet
  facet normal -0.1305261922200479 -0.9914448613738108 0
    outer loop
      vertex 7.715299050387227 -1.0625184089179758 12
      vertex 8 -1.0999999999999996 12
      vertex 8 -1.0999999999999996 18
    endloop
  endfacet
  facet normal 0.13052619222004794 -0.9914448613738109 0
    outer loop
      vertex 8 -1.0999999999999996 12
      vertex 8.284700949612773 -1.0625184089179758 12.051671647502253
      vertex 8.284700949612773 -1.0625184089179758 18
    endloop
  endfacet
  facet normal 0.38268343236509095 -0.9238795325112863 0
    outer loop
      vertex 8.284700949612773 -1.0625184089179758 12.051671647502253
      vertex 8.55 -0.9526279441628827 12.189423077550481
      vertex 8.284700949612773 -1.0625184089179758 18
    endloop
  endfacet
  facet normal 0.6087614290087241 -0.7933533402912324 0
    outer loop
      vertex 8.55 -0.9526279441628827 12.189423077550481
      vertex 8.7778174593052 -0.7778174593052025 12.307712912223616
      vertex 8.55 -0.9526279441628827 18
    endloop
  endfacet
  facet normal 0.7933533402912348 -0.6087614290087212 0
    outer loop
      vertex 8.7778174593052 -0.7778174593052025 12.307712912223616
      vertex 8.95262794416288 -0.5500000000000007 12.398479894771883
      vertex 8.7778174593052 -0.7778174593052025 18
    endloop
  endfacet
  facet normal 0.9238795325112863 -0.38268343236509095 0
    outer loop
      vertex 8.95262794416288 -0.5500000000000007 12.398479894771883
      vertex 9.062518408917974 -0.28470094961277326 12.45553840533415
      vertex 8.95262794416288 -0.5500000000000007 18
    endloop
  endfacet
  facet normal -0.7933533402912347 -0.6087614290087212 0
    outer loop
      vertex 7.222182540694799 -0.7778174593052025 12
      vertex 7.222182540694799 -0.7778174593052025 18
      vertex 7.047372055837119 -0.5500000000000007 18
    endloop
  endfacet
  facet normal -0.9238795325112862 -0.38268343236509095 0
    outer loop
      vertex 7.047372055837119 -0.5500000000000007 12
      vertex 7.047372055837119 -0.5500000000000007 18
      vertex 6.937481591082026 -0.28470094961277326 18
    endloop
  endfacet
  facet normal -0.38268343236509095 -0.9238795325112862 0
    outer loop
      vertex 7.449999999999999 -0.9526279441628827 12
      vertex 7.715299050387227 -1.0625184089179758 18
      vertex 7.449999999999999 -0.9526279441628827 18
    endloop
  endfacet
  facet normal -0.1305261922200479 -0.9914448613738108 0
    outer loop
      vertex 7.715299050387227 -1.0625184089179758 12
      vertex 8 -1.0999999999999996 18
      vertex 7.715299050387227 -1.0625184089179758 18
    endloop
  endfacet
  facet normal -0.6087614290087242 -0.7933533402912325 0
    outer loop
      vertex 7.222182540694799 -0.7778174593052025 12
      vertex 7.449999999999999 -0.9526279441628827 18
      vertex 7.222182540694799 -0.7778174593052025 18
    endloop
  endfacet
  facet normal 0 0 1
    outer loop
      vertex 7.222182540694799 -0.7778174593052025 18
      vertex 7.047372055837119 0.5500000000000007 18
      vertex 7.047372055837119 -0.5500000000000007 18
    endloop
  endfacet
  facet normal 0 0 1
    outer loop
      vertex 7.222182540694799 -0.7778174593052025 18
      vertex 7.449999999999999 -0.9526279441628827 18
      vertex 7.222182540694799 0.7778174593052025 18
    endloop
  endfacet
  facet normal 0 0 1
    outer loop
      vertex 7.449999999999999 -0.9526279441628827 18
      vertex 7.715299050387227 -1.0625184089179758 18
      vertex 7.449999999999999 0.9526279441628827 18
    endloop
  endfacet
  facet normal 0 0 1
    outer loop
      vertex 7.715299050387227 -1.0625184089179758 18
      vertex 8 -1.0999999999999996 18
      vertex 7.715299050387227 1.0625184089179758 18
    endloop
  endfacet
  facet normal 0.1305261922200479 -0.9914448613738108 0
    outer loop
      vertex 8 -1.0999999999999996 12
      vertex 8.284700949612773 -1.0625184089179758 18
      vertex 8 -1.0999999999999996 18
    endloop
  endfacet
  facet normal 0.3826834323650909 -0.9238795325112862 0
    outer loop
      vertex 8.55 -0.9526279441628827 12.189423077550481
      vertex 8.55 -0.9526279441628827 18
      vertex 8.284700949612773 -1.0625184089179758 18
    endloop
  endfacet
  facet normal 0.6087614290087242 -0.7933533402912324 0
    outer loop
      vertex 8.7778174593052 -0.7778174593052025 12.307712912223616
      vertex 8.7778174593052 -0.7778174593052025 18
      vertex 8.55 -0.9526279441628827 18
    endloop
  endfacet
  facet normal 0.7933533402912347 -0.6087614290087212 0
    outer loop
      vertex 8.95262794416288 -0.5500000000000007 12.398479894771883
      vertex 8.95262794416288 -0.5500000000000007 18
      vertex 8.7778174593052 -0.7778174593052025 18
    endloop
  endfacet
  facet normal 0.9238795325112863 -0.382683432365091 0
    outer loop
      vertex 9.062518408917974 -0.28470094961277326 12.45553840533415
      vertex 9.062518408917974 -0.28470094961277326 18
      vertex 8.95262794416288 -0.5500000000000007 18
    endloop
  endfacet
  facet normal 0 0 1
    outer loop
      vertex 8 -1.0999999999999996 18
      vertex 8.284700949612773 -1.0625184089179758 18
      vertex 8 1.0999999999999996 18
    endloop
  endfacet
  facet normal 0 0 1
    outer loop
      vertex 8.284700949612773 -1.0625184089179758 18
      vertex 8.55 -0.9526279441628827 18
      vertex 8.284700949612773 1.0625184089179758 18
    endloop
  endfacet
  facet normal 0 0 1
    outer loop
      vertex 8.55 -0.9526279441628827 18
      vertex 8.7778174593052 -0.7778174593052025 18
      vertex 8.55 0.9526279441628827 18
    endloop
  endfacet
  facet normal 0 0 -1
    outer loop
      vertex 7.047372055837119 -0.5500000000000007 12
      vertex 6.937481591082026 -0.28470094961277326 12
      vertex 7.047372055837119 0.5500000000000007 12
    endloop
  endfacet
  facet normal 0 0 -1
    outer loop
      vertex 6.937481591082026 -0.28470094961277326 12
      vertex 6.899999999999999 0 12
      vertex 6.937481591082026 0.28470094961277326 12
    endloop
  endfacet
  facet normal 0 0 -1
    outer loop
      vertex 7.222182540694799 -0.7778174593052025 12
      vertex 7.047372055837119 -0.5500000000000007 12
      vertex 7.222182540694799 0.7778174593052025 12
    endloop
  endfacet
  facet normal 0 0 -1
    outer loop
      vertex 6.937481591082026 -0.28470094961277326 12
      vertex 6.937481591082026 0.28470094961277326 12
      vertex 7.047372055837119 0.5500000000000007 12
    endloop
  endfacet
  facet normal 0 0 -1
    outer loop
      vertex 7.047372055837119 -0.5500000000000007 12
      vertex 7.047372055837119 0.5500000000000007 12
      vertex 7.222182540694799 0.7778174593052025 12
    endloop
  endfacet
  facet normal 0 0 -1
    outer loop
      vertex 7.222182540694799 -0.7778174593052025 12
      vertex 7.222182540694799 0.7778174593052025 12
      vertex 7.449999999999999 0.9526279441628827 12
    endloop
  endfacet
  facet normal 0 0 -1
    outer loop
      vertex 7.449999999999999 -0.9526279441628827 12
      vertex 7.449999999999999 0.9526279441628827 12
      vertex 7.715299050387227 1.0625184089179758 12
    endloop
  endfacet
  facet normal 0 0 -1
    outer loop
      vertex 7.715299050387227 -1.0625184089179758 12
      vertex 7.715299050387227 1.0625184089179758 12
      vertex 8 1.0999999999999996 12
    endloop
  endfacet
  facet normal 0 0 -1
    outer loop
      vertex 8.185185184081394 -1.0756199079995028 12
      vertex 8 1.0999999999999996 12
      vertex 8.185185184081394 1.0756199079995046 12
    endloop
  endfacet
  facet normal -0.9914448613738093 -0.1305261922200601 0
    outer loop
      vertex 6.937481591082026 -0.28470094961277326 12
      vertex 6.899999999999999 0 18
      vertex 6.899999999999999 0 12
    endloop
  endfacet
  facet normal -0.9914448613738093 0.1305261922200601 0
    outer loop
      vertex 6.899999999999999 0 12
      vertex 6.937481591082026 0.28470094961277326 18
      vertex 6.937481591082026 0.28470094961277326 12
    endloop
  endfacet
  facet normal -0.9238795325112862 0.38268343236509095 0
    outer loop
      vertex 6.937481591082026 0.28470094961277326 12
      vertex 7.047372055837119 0.5500000000000007 18
      vertex 7.047372055837119 0.5500000000000007 12
    endloop
  endfacet
  facet normal -0.7933533402912347 0.6087614290087212 0
    outer loop
      vertex 7.047372055837119 0.5500000000000007 12
      vertex 7.222182540694799 0.7778174593052025 18
      vertex 7.222182540694799 0.7778174593052025 12
    endloop
  endfacet
  facet normal -0.6087614290087242 0.7933533402912325 0
    outer loop
      vertex 7.222182540694799 0.7778174593052025 12
      vertex 7.222182540694799 0.7778174593052025 18
      vertex 7.449999999999999 0.9526279441628827 12
    endloop
  endfacet
  facet normal -0.38268343236509095 0.9238795325112862 0
    outer loop
      vertex 7.449999999999999 0.9526279441628827 12
      vertex 7.449999999999999 0.9526279441628827 18
      vertex 7.715299050387227 1.0625184089179758 12
    endloop
  endfacet
  facet normal -0.1305261922200479 0.9914448613738108 0
    outer loop
      vertex 7.715299050387227 1.0625184089179758 12
      vertex 7.715299050387227 1.0625184089179758 18
      vertex 8 1.0999999999999996 12
    endloop
  endfacet
  facet normal 0.13052619222004028 0.9914448613738119 0
    outer loop
      vertex 8 1.0999999999999996 12
      vertex 8 1.0999999999999996 18
      vertex 8.185185184081394 1.0756199079995046 12
    endloop
  endfacet
  facet normal 0.13052619222006218 0.991444861373809 0
    outer loop
      vertex 8.284700949612773 1.0625184089179758 12.051671647502253
      vertex 8.185185184081394 1.0756199079995046 12
      vertex 8.284700949612773 1.0625184089179758 18
    endloop
  endfacet
  facet normal 0.3826834323650909 0.9238795325112862 0
    outer loop
      vertex 8.284700949612773 1.0625184089179758 12.051671647502253
      vertex 8.55 0.9526279441628827 18
      vertex 8.55 0.9526279441628827 12.189423077550481
    endloop
  endfacet
  facet normal 0.6087614290087242 0.7933533402912324 0
    outer loop
      vertex 8.55 0.9526279441628827 12.189423077550481
      vertex 8.7778174593052 0.7778174593052025 18
      vertex 8.7778174593052 0.7778174593052025 12.307712912223616
    endloop
  endfacet
  facet normal 0.9914448613738092 -0.13052619222006007 0
    outer loop
      vertex 9.062518408917974 -0.28470094961277326 12.45553840533415
      vertex 9.100000000000001 0 12.47500000070924
      vertex 9.062518408917974 -0.28470094961277326 18
    endloop
  endfacet
  facet normal 0.9914448613738093 0.13052619222006007 0
    outer loop
      vertex 9.100000000000001 0 12.47500000070924
      vertex 9.062518408917974 0.28470094961277326 12.45553840533415
      vertex 9.100000000000001 0 18
    endloop
  endfacet
  facet normal 0.9238795325112863 0.382683432365091 0
    outer loop
      vertex 9.062518408917974 0.28470094961277326 12.45553840533415
      vertex 8.95262794416288 0.5500000000000007 12.398479894771883
      vertex 9.062518408917974 0.28470094961277326 18
    endloop
  endfacet
  facet normal 0.7933533402912347 0.6087614290087212 0
    outer loop
      vertex 8.7778174593052 0.7778174593052025 12.307712912223616
      vertex 8.95262794416288 0.5500000000000007 18
      vertex 8.95262794416288 0.5500000000000007 12.398479894771883
    endloop
  endfacet
  facet normal -0.9914448613738093 -0.1305261922200601 0
    outer loop
      vertex 6.937481591082026 -0.28470094961277326 12
      vertex 6.937481591082026 -0.28470094961277326 18
      vertex 6.899999999999999 0 18
    endloop
  endfacet
  facet normal -0.9914448613738093 0.1305261922200601 0
    outer loop
      vertex 6.899999999999999 0 12
      vertex 6.899999999999999 0 18
      vertex 6.937481591082026 0.28470094961277326 18
    endloop
  endfacet
  facet normal -0.9238795325112862 0.38268343236509095 0
    outer loop
      vertex 6.937481591082026 0.28470094961277326 12
      vertex 6.937481591082026 0.28470094961277326 18
      vertex 7.047372055837119 0.5500000000000007 18
    endloop
  endfacet
  facet normal -0.7933533402912347 0.6087614290087212 0
    outer loop
      vertex 7.047372055837119 0.5500000000000007 12
      vertex 7.047372055837119 0.5500000000000007 18
      vertex 7.222182540694799 0.7778174593052025 18
    endloop
  endfacet
  facet normal -0.6087614290087242 0.7933533402912325 0
    outer loop
      vertex 7.449999999999999 0.9526279441628827 12
      vertex 7.222182540694799 0.7778174593052025 18
      vertex 7.449999999999999 0.9526279441628827 18
    endloop
  endfacet
  facet normal -0.38268343236509095 0.9238795325112862 0
    outer loop
      vertex 7.715299050387227 1.0625184089179758 12
      vertex 7.449999999999999 0.9526279441628827 18
      vertex 7.715299050387227 1.0625184089179758 18
    endloop
  endfacet
  facet normal 0 0 1
    outer loop
      vertex 7.047372055837119 -0.5500000000000007 18
      vertex 6.937481591082026 0.28470094961277326 18
      vertex 6.937481591082026 -0.28470094961277326 18
    endloop
  endfacet
  facet normal 0 0 1
    outer loop
      vertex 6.937481591082026 -0.28470094961277326 18
      vertex 6.937481591082026 0.28470094961277326 18
      vertex 6.899999999999999 0 18
    endloop
  endfacet
  facet normal 0 0 1
    outer loop
      vertex 7.047372055837119 -0.5500000000000007 18
      vertex 7.047372055837119 0.5500000000000007 18
      vertex 6.937481591082026 0.28470094961277326 18
    endloop
  endfacet
  facet normal 0 0 1
    outer loop
      vertex 7.222182540694799 -0.7778174593052025 18
      vertex 7.222182540694799 0.7778174593052025 18
      vertex 7.047372055837119 0.5500000000000007 18
    endloop
  endfacet
  facet normal 0 0 1
    outer loop
      vertex 7.449999999999999 -0.9526279441628827 18
      vertex 7.449999999999999 0.9526279441628827 18
      vertex 7.222182540694799 0.7778174593052025 18
    endloop
  endfacet
  facet normal 0 0 1
    outer loop
      vertex 7.715299050387227 -1.0625184089179758 18
      vertex 7.715299050387227 1.0625184089179758 18
      vertex 7.449999999999999 0.9526279441628827 18
    endloop
  endfacet
  facet normal 0 0 1
    outer loop
      vertex 8 -1.0999999999999996 18
      vertex 8 1.0999999999999996 18
      vertex 7.715299050387227 1.0625184089179758 18
    endloop
  endfacet
  facet normal -0.1305261922200479 0.9914448613738108 0
    outer loop
      vertex 8 1.0999999999999996 12
      vertex 7.715299050387227 1.0625184089179758 18
      vertex 8 1.0999999999999996 18
    endloop
  endfacet
  facet normal 0.38268343236509095 0.9238795325112863 0
    outer loop
      vertex 8.284700949612773 1.0625184089179758 12.051671647502253
      vertex 8.284700949612773 1.0625184089179758 18
      vertex 8.55 0.9526279441628827 18
    endloop
  endfacet
  facet normal 0.7933533402912348 0.6087614290087212 0
    outer loop
      vertex 8.7778174593052 0.7778174593052025 12.307712912223616
      vertex 8.7778174593052 0.7778174593052025 18
      vertex 8.95262794416288 0.5500000000000007 18
    endloop
  endfacet
  facet normal 0.6087614290087241 0.7933533402912324 0
    outer loop
      vertex 8.55 0.9526279441628827 12.189423077550481
      vertex 8.55 0.9526279441628827 18
      vertex 8.7778174593052 0.7778174593052025 18
    endloop
  endfacet
  facet normal 0.9914448613738093 -0.13052619222006007 0
    outer loop
      vertex 9.062518408917974 -0.28470094961277326 18
      vertex 9.100000000000001 0 12.47500000070924
      vertex 9.100000000000001 0 18
    endloop
  endfacet
  facet normal 0.9914448613738092 0.13052619222006007 0
    outer loop
      vertex 9.062518408917974 0.28470094961277326 12.45553840533415
      vertex 9.062518408917974 0.28470094961277326 18
      vertex 9.100000000000001 0 18
    endloop
  endfacet
  facet normal 0.9238795325112863 0.38268343236509095 0
    outer loop
      vertex 8.95262794416288 0.5500000000000007 12.398479894771883
      vertex 8.95262794416288 0.5500000000000007 18
      vertex 9.062518408917974 0.28470094961277326 18
    endloop
  endfacet
  facet normal 0 0 1
    outer loop
      vertex 8.284700949612773 -1.0625184089179758 18
      vertex 8.284700949612773 1.0625184089179758 18
      vertex 8 1.0999999999999996 18
    endloop
  endfacet
  facet normal 0 0 1
    outer loop
      vertex 8.55 -0.9526279441628827 18
      vertex 8.55 0.9526279441628827 18
      vertex 8.284700949612773 1.0625184089179758 18
    endloop
  endfacet
  facet normal 0 0 1
    outer loop
      vertex 8.7778174593052 -0.7778174593052025 18
      vertex 8.95262794416288 -0.5500000000000007 18
      vertex 8.7778174593052 0.7778174593052025 18
    endloop
  endfacet
  facet normal 0 0 1
    outer loop
      vertex 8.7778174593052 -0.7778174593052025 18
      vertex 8.7778174593052 0.7778174593052025 18
      vertex 8.55 0.9526279441628827 18
    endloop
  endfacet
  facet normal 0 0 1
    outer loop
      vertex 8.95262794416288 -0.5500000000000007 18
      vertex 9.062518408917974 -0.28470094961277326 18
      vertex 8.95262794416288 0.5500000000000007 18
    endloop
  endfacet
  facet normal 0 0 1
    outer loop
      vertex 9.062518408917974 -0.28470094961277326 18
      vertex 9.100000000000001 0 18
      vertex 9.062518408917974 0.28470094961277326 18
    endloop
  endfacet
  facet normal 0 0 1
    outer loop
      vertex 8.95262794416288 -0.5500000000000007 18
      vertex 8.95262794416288 0.5500000000000007 18
      vertex 8.7778174593052 0.7778174593052025 18
    endloop
  endfacet
  facet normal 0 0 1
    outer loop
      vertex 9.062518408917974 -0.28470094961277326 18
      vertex 9.062518408917974 0.28470094961277326 18
      vertex 8.95262794416288 0.5500000000000007 18
    endloop
  endfacet
  facet normal 0.1305261922200479 0.9914448613738108 2.401303419269001e-16
    outer loop
      vertex 8.185185184081394 1.0756199079995046 12
      vertex 8 1.0999999999999996 18
      vertex 8.284700949612773 1.0625184089179758 18
    endloop
  endfacet
  facet normal 0 -1 0
    outer loop
      vertex -13.3 -7 6
      vertex -13 -7 6
      vertex -13 -7 8
    endloop
  endfacet
  facet normal 0 -1 0
    outer loop
      vertex -13.3 -7 6
      vertex -13 -7 8
      vertex -13.3 -7 8
    endloop
  endfacet
  facet normal 0 0 -1
    outer loop
      vertex -13.3 -7 6
      vertex -13.3 7 6
      vertex -13 -7 6
    endloop
  endfacet
  facet normal -1 0 0
    outer loop
      vertex -13.3 -7 6
      vertex -13.3 -7 8
      vertex -13.3 7 8
    endloop
  endfacet
  facet normal 0 0 1
    outer loop
      vertex -13.3 -7 8
      vertex -13 -7 8
      vertex -13 7 8
    endloop
  endfacet
  facet normal 0 0 -1
    outer loop
      vertex -13.3 7 6
      vertex -13 7 6
      vertex -13 -7 6
    endloop
  endfacet
  facet normal -1 0 0
    outer loop
      vertex -13.3 -7 6
      vertex -13.3 7 8
      vertex -13.3 7 6
    endloop
  endfacet
  facet normal 0 0 1
    outer loop
      vertex -13.3 -7 8
      vertex -13 7 8
      vertex -13.3 7 8
    endloop
  endfacet
  facet normal 0 1 0
    outer loop
      vertex -13.3 7 6
      vertex -13.3 7 8
      vertex -13 7 6
    endloop
  endfacet
  facet normal 0 1 0
    outer loop
      vertex -13.3 7 8
      vertex -13 7 8
      vertex -13 7 6
    endloop
  endfacet
endsolid OpenSCAD_Model
